<?xml version="1.0" standalone="no"?>
<!DOCTYPE svg PUBLIC "-//W3C//DTD SVG 20010904//EN"
 "http://www.w3.org/TR/2001/REC-SVG-20010904/DTD/svg10.dtd">
<svg version="1.0" xmlns="http://www.w3.org/2000/svg"
 width="1822.000000pt" height="2048.000000pt" viewBox="0 0 1822.000000 2048.000000"
 preserveAspectRatio="xMidYMid meet">

<g transform="translate(0.000000,2048.000000) scale(0.100000,-0.100000)"
fill="#000000" stroke="none">
<path d="M16195 14317 c-985 -569 -2386 -1378 -3115 -1799 -729 -421 -1937
-1118 -2685 -1550 -3357 -1936 -3905 -2254 -3905 -2264 0 -6 35 -64 78 -130
509 -773 1313 -1264 2237 -1364 231 -25 607 -9 855 36 421 76 872 269 1226
525 295 213 561 490 757 789 42 63 82 123 89 134 13 17 93 -27 1323 -739 721
-416 1312 -758 1314 -760 5 -5 -102 -179 -202 -330 -840 -1262 -2165 -2187
-3637 -2539 -513 -123 -854 -161 -1435 -161 -429 0 -552 8 -875 56 -1562 233
-2963 1060 -3935 2324 -111 145 -309 435 -385 565 -24 41 -45 77 -46 78 -3 4
-3592 -2065 -3608 -2079 -21 -19 139 -242 266 -372 46 -46 117 -109 158 -139
71 -53 7640 -4428 7745 -4477 80 -38 212 -80 317 -101 82 -17 137 -20 376 -20
312 0 371 7 552 66 58 18 139 51 180 72 107 55 7571 4365 7650 4417 325 214
607 647 703 1079 l22 101 0 4490 c0 4284 -1 4494 -18 4578 -27 132 -80 287
-147 425 -32 67 -60 122 -62 122 -2 0 -809 -465 -1793 -1033z m-1685 -3412 l0
-335 338 -2 337 -3 0 -335 0 -335 -337 -3 -338 -2 0 -335 0 -335 -340 0 -340
0 0 335 0 335 -335 0 -335 0 0 340 0 340 335 0 335 0 0 335 0 335 340 0 340 0
0 -335z m2530 0 l0 -335 338 -2 337 -3 3 -337 2 -338 -340 0 -340 0 0 -335 0
-335 -340 0 -340 0 0 335 0 335 -335 0 -335 0 0 340 0 340 335 0 335 0 0 335
0 335 340 0 340 0 0 -335z"/>
</g>
</svg>
