<?xml version="1.0" standalone="no"?>
<!DOCTYPE svg PUBLIC "-//W3C//DTD SVG 20010904//EN"
 "http://www.w3.org/TR/2001/REC-SVG-20010904/DTD/svg10.dtd">
<svg version="1.0" xmlns="http://www.w3.org/2000/svg"
 width="695.000000pt" height="768.000000pt" viewBox="0 0 695.000000 768.000000"
 preserveAspectRatio="xMidYMid meet">

<g transform="translate(0.000000,768.000000) scale(0.100000,-0.100000)"
fill="#000000" stroke="none">
<path d="M6295 5499 c-308 -175 -587 -337 -620 -358 -78 -51 -1095 -631 -1106
-631 -14 0 -2213 -1258 -2217 -1268 -5 -15 61 -118 134 -210 176 -221 438
-380 734 -444 115 -25 354 -30 470 -9 158 28 367 111 490 194 142 96 277 232
358 359 21 32 42 57 48 55 12 -3 1095 -597 1107 -607 10 -9 -77 -152 -153
-255 -319 -428 -763 -751 -1255 -914 -291 -96 -487 -126 -820 -126 -228 1
-264 3 -409 29 -525 91 -979 320 -1359 685 -161 155 -316 350 -427 538 l-42
73 -44 -26 c-23 -14 -287 -164 -586 -334 l-543 -310 -17 33 c-27 50 -21 22 7
-33 54 -107 18 -85 1670 -1012 853 -479 1577 -882 1610 -896 86 -37 214 -37
300 -1 33 15 758 418 1610 897 1234 693 1560 880 1599 918 29 28 61 75 80 113
l31 66 0 1815 0 1815 -23 55 c-12 30 -33 67 -45 82 l-22 27 -560 -320z"/>
</g>
</svg>
