<?xml version="1.0" standalone="no"?>
<!DOCTYPE svg PUBLIC "-//W3C//DTD SVG 20010904//EN"
 "http://www.w3.org/TR/2001/REC-SVG-20010904/DTD/svg10.dtd">
<svg version="1.0" xmlns="http://www.w3.org/2000/svg"
 width="1482.000000pt" height="628.000000pt" viewBox="0 0 1482.000000 628.000000"
 preserveAspectRatio="xMidYMid meet">

<g transform="translate(0.000000,628.000000) scale(0.100000,-0.100000)"
fill="#000000" stroke="none">
<path d="M14271 5384 c8 -12 29 -43 47 -68 17 -26 32 -53 32 -61 0 -8 4 -16 9
-19 5 -3 17 -29 27 -58 24 -71 22 -195 -10 -583 -14 -170 -30 -373 -36 -450
-6 -77 -15 -187 -20 -245 -5 -58 -12 -143 -15 -190 -3 -47 -12 -164 -20 -260
-8 -96 -21 -265 -30 -375 -8 -110 -22 -288 -31 -395 -40 -510 -57 -715 -64
-825 -21 -293 -29 -374 -38 -391 -5 -11 -12 -34 -16 -53 -15 -81 -113 -237
-231 -369 -21 -24 -101 -82 -113 -82 -4 0 -37 -17 -72 -38 -184 -107 -411
-153 -663 -133 -78 6 -182 13 -232 16 -49 4 -171 13 -270 20 -99 8 -317 24
-485 35 -385 26 -519 35 -860 60 -151 12 -336 25 -410 30 -483 32 -1031 71
-1065 75 -22 3 -143 12 -270 20 -126 8 -315 22 -420 30 -104 8 -237 17 -295
20 -58 3 -156 10 -218 16 -62 5 -215 16 -340 24 -289 19 -462 31 -632 44 -74
6 -301 22 -505 36 -203 14 -428 29 -500 35 -71 5 -197 14 -280 20 -82 6 -240
17 -350 25 -110 9 -274 20 -365 25 -91 5 -217 14 -280 19 -143 13 -212 18
-420 31 -91 6 -282 19 -425 30 -242 18 -391 29 -1135 80 -157 11 -346 25 -420
30 -228 18 -242 19 -355 25 -60 3 -189 13 -285 21 -96 7 -278 21 -405 29 -249
16 -706 48 -930 65 -228 18 -328 53 -429 152 -33 32 -64 58 -68 58 -4 0 -7 3
-6 8 1 4 -8 26 -20 50 -12 23 -29 66 -37 95 l-14 52 0 -54 c-2 -154 130 -372
243 -402 23 -6 52 -15 66 -20 37 -12 252 -37 430 -49 85 -6 211 -15 280 -21
69 -5 168 -12 220 -15 52 -3 138 -9 190 -15 52 -5 133 -12 180 -14 47 -2 144
-8 215 -14 142 -12 128 -11 655 -46 201 -14 397 -27 435 -30 39 -3 129 -10
200 -15 355 -25 423 -30 460 -35 22 -2 78 -7 125 -10 124 -8 486 -33 710 -50
107 -8 240 -17 295 -20 55 -3 143 -10 195 -15 85 -8 207 -17 355 -25 28 -1 70
-5 95 -9 25 -3 90 -8 145 -11 137 -6 389 -23 450 -30 64 -7 170 -15 265 -20
100 -5 228 -14 380 -26 205 -16 389 -29 495 -34 55 -3 138 -10 185 -15 47 -5
166 -14 265 -20 99 -6 209 -14 245 -18 36 -3 71 -6 79 -5 7 1 55 -3 105 -7 50
-5 201 -16 336 -25 135 -8 261 -17 280 -20 19 -3 85 -7 145 -10 61 -3 126 -8
145 -10 56 -6 172 -14 355 -25 94 -6 193 -12 220 -15 195 -17 426 -35 585 -45
193 -12 555 -38 635 -45 33 -3 96 -8 140 -10 44 -3 143 -10 220 -15 77 -6 204
-15 283 -20 78 -6 208 -15 290 -20 81 -6 206 -15 277 -20 355 -25 580 -41 680
-50 61 -6 146 -10 190 -11 58 0 75 -3 60 -10 -18 -9 -18 -9 3 -5 13 2 67 0
120 -5 53 -6 148 -10 210 -10 98 1 122 4 180 27 236 93 428 253 535 446 58
105 85 243 111 583 23 289 63 807 86 1125 11 151 25 334 30 405 15 206 48 651
75 1020 14 187 30 408 36 490 14 192 6 278 -32 369 -41 97 -109 203 -160 251
-24 22 -36 30 -28 19z"/>
<path d="M2832 5240 c-158 -42 -272 -131 -338 -264 -68 -138 -58 -274 25 -349
62 -56 138 -79 261 -80 117 -1 183 14 284 65 79 40 201 162 244 245 40 77 72
198 72 275 l0 58 -85 2 c-47 0 -90 1 -95 2 -6 1 -12 -35 -14 -89 -2 -70 -8
-102 -28 -146 -32 -71 -82 -127 -133 -150 -47 -22 -89 -25 -82 -6 2 6 19 53
37 102 17 50 52 144 76 210 24 67 44 126 44 133 0 20 -182 14 -268 -8z m34
-205 c-3 -9 -25 -67 -48 -130 -46 -124 -50 -127 -111 -102 -45 19 -60 41 -60
87 0 54 36 104 97 135 58 29 132 35 122 10z"/>
<path d="M2629 4409 c-260 -22 -442 -172 -495 -408 -27 -120 6 -211 98 -274
70 -46 136 -60 267 -55 103 4 125 8 194 37 96 41 182 104 241 178 85 107 138
249 140 373 l1 75 -97 3 -96 3 0 -78 c0 -168 -96 -314 -222 -339 -32 -7 -33
-6 -26 19 3 14 42 124 85 244 44 120 79 218 78 219 -9 7 -107 8 -168 3z m-77
-214 c4 -5 -86 -262 -95 -272 -8 -7 -80 21 -103 40 -31 27 -35 77 -11 124 21
40 81 91 115 99 15 3 32 7 37 9 17 6 51 5 57 0z"/>
<path d="M1991 3632 c-54 -107 -49 -175 20 -236 21 -20 39 -38 39 -39 0 -2
-33 -2 -72 1 l-73 4 -37 -103 c-21 -57 -39 -111 -40 -119 -3 -12 35 -16 237
-27 132 -6 321 -16 420 -22 98 -6 180 -9 181 -8 2 1 23 59 47 129 l45 126 -77
6 c-42 3 -130 8 -196 11 -151 7 -203 19 -247 55 -56 46 -57 101 -4 221 6 14
-5 17 -76 23 -46 4 -97 9 -115 12 -29 5 -33 3 -52 -34z"/>
<path d="M1390 3084 c-6 -16 -31 -79 -55 -140 -54 -136 -68 -194 -59 -249 13
-91 96 -146 243 -161 60 -6 72 -10 68 -23 -3 -9 -15 -44 -28 -78 -12 -35 -21
-64 -18 -66 2 -3 48 -7 101 -9 l97 -5 27 71 c15 39 30 75 34 79 4 5 131 1 281
-8 151 -9 296 -17 323 -18 l49 -2 45 128 c24 70 42 130 39 133 -2 3 -144 13
-315 22 -171 10 -313 20 -316 23 -3 3 9 42 25 88 26 68 29 85 18 92 -8 5 -54
8 -103 7 l-89 -3 -32 -85 -31 -85 -58 0 c-51 1 -61 4 -82 29 -28 32 -29 27 27
170 21 55 36 102 34 105 -3 2 -52 6 -110 9 l-105 5 -10 -29z"/>
<path d="M2788 2593 c-25 -71 -42 -131 -39 -134 6 -7 184 -18 1136 -74 559
-33 1869 -112 2322 -140 131 -8 501 -30 823 -50 322 -19 693 -42 825 -50 264
-16 537 -32 1170 -70 231 -13 530 -31 665 -40 420 -26 882 -54 1230 -75 184
-11 409 -24 500 -30 706 -46 1589 -95 1595 -88 6 6 35 227 35 269 l0 26 -117
6 c-471 26 -1530 87 -1948 112 -137 8 -290 17 -340 20 -49 3 -205 12 -345 20
-140 8 -574 33 -965 55 -814 46 -1312 74 -1670 95 -137 8 -369 22 -515 30
-146 9 -339 20 -430 25 -204 13 -1000 58 -1835 105 -346 20 -938 54 -1314 75
-376 22 -696 40 -711 40 -26 0 -30 -6 -72 -127z"/>
</g>
</svg>
